<?xml version="1.0" encoding="UTF-8"?>
<svg id="Layer_1" data-name="Layer 1" xmlns="http://www.w3.org/2000/svg" viewBox="0 0 199.86 199.86">
  <defs>
    <style>
      .cls-1 {
        fill: #231f20;
      }

      .cls-2 {
        fill: #fff;
      }

      .cls-3 {
        fill: #f79433;
      }
    </style>
  </defs>
  <path class="cls-2" d="M99.93,197.24c53.74,0,97.31-43.57,97.31-97.31S153.67,2.62,99.93,2.62,2.62,46.18,2.62,99.93s43.57,97.31,97.32,97.31"/>
  <path class="cls-3" d="M99.93,197.24v-2.62c26.16,0,49.81-10.59,66.96-27.74,17.14-17.15,27.74-40.8,27.74-66.96,0-26.16-10.6-49.81-27.74-66.96C149.75,15.83,126.09,5.23,99.93,5.23c-26.16,0-49.82,10.59-66.96,27.73C15.83,50.11,5.23,73.77,5.23,99.93c0,26.16,10.6,49.82,27.74,66.96,17.15,17.14,40.8,27.73,66.96,27.74v5.23C44.74,199.86,0,155.12,0,99.93,0,44.74,44.74,0,99.93,0c55.19,0,99.93,44.74,99.93,99.93,0,55.19-44.74,99.93-99.93,99.93v-2.62Z"/>
  <path class="cls-1" d="M81.47,103.14s8.52-.3,9.87-.3c20.19,0,28.11,7.48,28.11,21.38,0,11.81-8.52,19.74-21.08,19.74-10.17,0-17.49-4.04-26.61-14.35l-7.92,7.18c9.12,12.11,19.74,17.34,34.39,17.34,19.89,0,33.19-11.66,33.19-29.45,0-14.8-7.18-24.07-20.48-26.76,12.71-5.38,17.79-12.56,17.79-24.67,0-16.15-11.81-26.91-29.6-26.91-12.71,0-24.22,5.23-31.25,14.2l7.63,8.07c7.03-8.22,14.05-12.11,23.03-12.11,11.06,0,18.84,6.88,18.84,16.45,0,11.66-9.27,19.74-25.87,19.74-3.14,0-5.38,0-10.32-.3l.3,10.77Z"/>
</svg>