<?xml version="1.0" encoding="UTF-8"?>
<svg id="Layer_1" data-name="Layer 1" xmlns="http://www.w3.org/2000/svg" viewBox="0 0 199.86 199.86">
  <defs>
    <style>
      .cls-1 {
        fill: #231f20;
      }

      .cls-2 {
        fill: #fff;
      }

      .cls-3 {
        fill: #f79433;
      }
    </style>
  </defs>
  <path class="cls-2" d="M99.93,195.65c53.24,0,96.41-43.16,96.41-96.41S153.17,2.83,99.93,2.83,3.52,45.99,3.52,99.24s43.17,96.41,96.41,96.41"/>
  <path class="cls-3" d="M99.93,195.65v-2.59c25.91,0,49.35-10.5,66.34-27.48,16.98-16.99,27.48-40.42,27.48-66.34,0-25.91-10.5-49.35-27.48-66.34C149.28,15.92,125.85,5.43,99.93,5.42c-25.91,0-49.35,10.5-66.34,27.48C16.61,49.89,6.11,73.32,6.11,99.24c0,25.92,10.5,49.35,27.48,66.34,16.99,16.98,40.42,27.48,66.34,27.48v5.19c-54.68,0-99-44.32-99-99C.93,44.56,45.26.24,99.93.24c54.68,0,99,44.32,99,99,0,54.68-44.33,99-99,99v-2.59Z"/>
  <path class="cls-1" d="M80.31,120.49c0-14.22,9.18-24.15,22.37-24.15,12.29,0,20,8.59,20,22.37,0,14.96-7.85,23.55-21.48,23.55-12.89,0-20.89-8.3-20.89-21.78ZM93.19,47.47c-16.59,29.48-24.15,49.33-24.15,69.92,0,21.77,12.15,34.96,32.44,34.96s32.44-12.89,32.44-32.74-12-33.33-29.92-33.33c-9.63,0-13.48,1.33-20.29,8,5.04-16,11.55-29.33,21.92-46.81h-12.44Z"/>
</svg>