<?xml version="1.0" encoding="UTF-8"?>
<svg id="Layer_1" data-name="Layer 1" xmlns="http://www.w3.org/2000/svg" viewBox="0 0 199.86 199.86">
  <defs>
    <style>
      .cls-1 {
        fill: #231f20;
      }

      .cls-2 {
        fill: #fff;
      }

      .cls-3 {
        fill: #f79433;
      }
    </style>
  </defs>
  <path class="cls-2" d="M99.93,197.24c53.74,0,97.31-43.57,97.31-97.31S153.67,2.62,99.93,2.62,2.62,46.18,2.62,99.93s43.57,97.31,97.32,97.31"/>
  <path class="cls-3" d="M99.93,197.24v-2.62c26.16,0,49.81-10.59,66.96-27.74,17.14-17.14,27.74-40.8,27.74-66.96,0-26.16-10.6-49.81-27.74-66.96C149.75,15.83,126.09,5.23,99.93,5.23c-26.16,0-49.82,10.59-66.96,27.73C15.83,50.11,5.23,73.77,5.23,99.93c0,26.16,10.6,49.82,27.74,66.96,17.15,17.14,40.8,27.73,66.96,27.74v5.23C44.74,199.86,0,155.12,0,99.93,0,44.74,44.74,0,99.93,0c55.19,0,99.93,44.74,99.93,99.93,0,55.19-44.74,99.93-99.93,99.93v-2.62Z"/>
  <polygon class="cls-1" points="135.89 115.7 123.33 115.7 123.33 71.29 112.87 71.29 112.87 115.7 77.88 115.7 116.75 47.67 104.19 47.67 65.02 116.15 65.02 126.46 112.87 126.46 112.87 152.18 123.33 152.18 123.33 126.46 135.89 126.46 135.89 115.7"/>
</svg>