<?xml version="1.0" encoding="UTF-8"?>
<svg id="Layer_1" data-name="Layer 1" xmlns="http://www.w3.org/2000/svg" viewBox="0 0 199.86 199.86">
  <defs>
    <style>
      .cls-1 {
        fill: #231f20;
      }

      .cls-2 {
        fill: #fff;
      }

      .cls-3 {
        fill: #f79433;
      }
    </style>
  </defs>
  <path class="cls-2" d="M99.93,197.24c53.74,0,97.31-43.57,97.31-97.31S153.67,2.62,99.93,2.62,2.62,46.18,2.62,99.93s43.57,97.31,97.32,97.31"/>
  <path class="cls-3" d="M99.93,197.24v-2.62c26.16,0,49.81-10.59,66.96-27.74,17.14-17.14,27.74-40.8,27.74-66.96,0-26.16-10.6-49.81-27.74-66.96C149.75,15.83,126.09,5.23,99.93,5.23c-26.16,0-49.82,10.59-66.96,27.73C15.83,50.11,5.23,73.77,5.23,99.93c0,26.16,10.6,49.82,27.74,66.96,17.15,17.14,40.8,27.73,66.96,27.74v5.23C44.74,199.86,0,155.12,0,99.93,0,44.74,44.74,0,99.93,0c55.19,0,99.93,44.74,99.93,99.93,0,55.19-44.74,99.93-99.93,99.93v-2.62Z"/>
  <path class="cls-1" d="M82.81,58.58h43.81v-10.77h-54.28l-.45,52.93,10.17,3.74c5.83-5.68,9.12-7.03,16.9-7.03,11.96,0,20.33,8.82,20.33,21.68,0,15.1-8.82,24.52-22.73,24.52-9.27,0-15.55-2.84-25.42-11.51l-7.03,7.48c7.48,9.27,20.18,14.8,33.49,14.8,18.84,0,33.64-14.35,33.64-34.69s-12.71-33.49-32-33.49c-7.48,0-10.47.9-17.19,4.63l.75-32.3Z"/>
</svg>