<?xml version="1.0" encoding="UTF-8"?>
<svg id="Layer_1" data-name="Layer 1" xmlns="http://www.w3.org/2000/svg" viewBox="0 0 199.86 199.86">
  <defs>
    <style>
      .cls-1 {
        fill: #231f20;
      }

      .cls-2 {
        fill: #fff;
      }

      .cls-3 {
        fill: #f79433;
      }
    </style>
  </defs>
  <path class="cls-2" d="M99.93,197.24c53.74,0,97.31-43.57,97.31-97.31S153.67,2.62,99.93,2.62,2.62,46.18,2.62,99.93s43.57,97.31,97.31,97.31"/>
  <path class="cls-3" d="M99.93,197.24v-2.62c26.16,0,49.81-10.59,66.96-27.74,17.14-17.15,27.74-40.8,27.74-66.96,0-26.16-10.6-49.81-27.74-66.96C149.75,15.83,126.09,5.24,99.93,5.23c-26.16,0-49.81,10.59-66.96,27.74C15.83,50.11,5.23,73.77,5.23,99.93c0,26.16,10.6,49.82,27.74,66.96,17.15,17.14,40.8,27.73,66.96,27.74v5.23C44.74,199.86,0,155.12,0,99.93,0,44.74,44.74,0,99.93,0c55.19,0,99.93,44.74,99.93,99.93,0,55.19-44.74,99.93-99.93,99.93v-2.62Z"/>
  <path class="cls-1" d="M132.15,142.01h-48.74c21.08-15.55,48.59-41.42,48.59-65.49,0-18.24-11.51-30.65-31.55-30.65-17.94,0-29.45,9.12-34.09,26.61l10.77,3.29c3.89-12.71,12.41-19.74,23.03-19.74,11.36,0,19.44,8.07,19.44,20.04,0,20.93-26.61,46.2-52.93,66.54v9.57h65.49v-10.17Z"/>
</svg>